<?xml version="1.0" encoding="UTF-8" standalone="no"?><!DOCTYPE svg PUBLIC "-//W3C//DTD SVG 1.1//EN" "http://www.w3.org/Graphics/SVG/1.1/DTD/svg11.dtd"><!-- Generated by graphviz version 2.40.1 (20161225.0304)
 --><!-- Title: G Pages: 1 --><svg xmlns="http://www.w3.org/2000/svg" xmlns:xlink="http://www.w3.org/1999/xlink" width="414pt" height="448pt" viewBox="0.00 0.00 413.73 448.00">
<g id="graph0" class="graph" transform="scale(1 1) rotate(0) translate(4 444)">
<title>G</title>
<polygon fill="#ffffff" stroke="transparent" points="-4,4 -4,-444 409.7314,-444 409.7314,4 -4,4"/>
<g id="clust1" class="cluster">
<title>cluster_0</title>
<polygon fill="#d3d3d3" stroke="#000000" points="266.324,-8 266.324,-216 397.7314,-216 397.7314,-8 266.324,-8"/>
<text text-anchor="middle" x="332.0277" y="-199.4" font-family="Times,serif" font-size="14.00" fill="#000000">Backend</text>
</g>
<g id="clust2" class="cluster">
<title>cluster_01</title>
<polygon fill="#d3d3d3" stroke="#000000" points="276.0277,-62 276.0277,-139 388.0277,-139 388.0277,-62 276.0277,-62"/>
<text text-anchor="middle" x="332.0277" y="-122.4" font-family="Times,serif" font-size="14.00" fill="#000000">Connection layer</text>
</g>
<g id="clust3" class="cluster">
<title>cluster_10</title>
<polygon fill="#d3d3d3" stroke="#000000" points="9.2872,-288 9.2872,-432 154.1202,-432 154.1202,-288 9.2872,-288"/>
<text text-anchor="start" x="63.4309" y="-415.4" font-family="Times,serif" font-size="14.00" fill="#000000">Assets</text>
<text text-anchor="start" x="22.2037" y="-398.6" font-family="Times,serif" font-size="14.00" fill="#000000">        Scripts and CSS</text>
<text text-anchor="start" x="19.8979" y="-381.8" font-family="Times,serif" font-size="14.00" fill="#000000"> files are not available</text>
<text text-anchor="start" x="16.8018" y="-365" font-family="Times,serif" font-size="14.00" fill="#000000"> here and are generated</text>
<text text-anchor="start" x="44.9635" y="-348.2" font-family="Times,serif" font-size="14.00" fill="#000000"> by a bundler</text>
</g>
<g id="clust4" class="cluster">
<title>cluster_1</title>
<polygon fill="#add8e6" stroke="#000000" points="8,-54 8,-280 155.4074,-280 155.4074,-54 8,-54"/>
<text text-anchor="middle" x="81.7037" y="-263.4" font-family="Times,serif" font-size="14.00" fill="#000000">Frontend</text>
</g>
<g id="clust5" class="cluster">
<title>cluster_11</title>
<polygon fill="#add8e6" stroke="#000000" points="16,-62 16,-247 147.4074,-247 147.4074,-62 16,-62"/>
<text text-anchor="middle" x="81.7037" y="-230.4" font-family="Times,serif" font-size="14.00" fill="#000000">For bundle</text>
</g>
<!-- api -->
<g id="node1" class="node">
<title>api</title>
<ellipse fill="#ffffff" stroke="#ffffff" cx="332.0277" cy="-88" rx="27" ry="18"/>
<text text-anchor="middle" x="332.0277" y="-83.8" font-family="Times,serif" font-size="14.00" fill="#000000">api</text>
</g>
<!-- components -->
<g id="node2" class="node">
<title>components</title>
<ellipse fill="#ffffff" stroke="#ffffff" cx="332.0277" cy="-165" rx="57.9081" ry="18"/>
<text text-anchor="middle" x="332.0277" y="-160.8" font-family="Times,serif" font-size="14.00" fill="#000000">components</text>
</g>
<!-- components_2 -->
<g id="node6" class="node">
<title>components_2</title>
<ellipse fill="#d3d3d3" stroke="#000000" cx="81.7037" cy="-142" rx="57.9081" ry="18"/>
<text text-anchor="middle" x="81.7037" y="-137.8" font-family="Times,serif" font-size="14.00" fill="#000000">components</text>
</g>
<!-- components&#45;&gt;components_2 -->
<g id="edge1" class="edge">
<title>components-&gt;components_2</title>
<path fill="none" stroke="#000000" d="M276.628,-159.9098C238.4203,-156.3993 187.469,-151.7178 147.2409,-148.0216"/>
<polygon fill="#000000" stroke="#000000" points="147.537,-144.5342 137.2587,-147.1044 146.8965,-151.5048 147.537,-144.5342"/>
<text text-anchor="start" x="163.4074" y="-161.2" font-family="Times,serif" font-size="14.00" fill="#000000">automatic routes</text>
</g>
<!-- files -->
<g id="node3" class="node">
<title>files</title>
<ellipse fill="#ffffff" stroke="#ffffff" cx="332.0277" cy="-34" rx="27.8228" ry="18"/>
<text text-anchor="middle" x="332.0277" y="-29.8" font-family="Times,serif" font-size="14.00" fill="#000000">files</text>
</g>
<!-- static -->
<g id="node4" class="node">
<title>static</title>
<ellipse fill="none" stroke="#000000" cx="81.7037" cy="-314" rx="31.3333" ry="18"/>
<text text-anchor="middle" x="81.7037" y="-309.8" font-family="Times,serif" font-size="14.00" fill="#000000">static</text>
</g>
<!-- css -->
<g id="node5" class="node">
<title>css</title>
<ellipse fill="#d3d3d3" stroke="#000000" cx="81.7037" cy="-196" rx="27" ry="18"/>
<text text-anchor="middle" x="81.7037" y="-191.8" font-family="Times,serif" font-size="14.00" fill="#000000">css</text>
</g>
<!-- components_2&#45;&gt;api -->
<g id="edge2" class="edge">
<title>components_2-&gt;api</title>
<path fill="none" stroke="#000000" d="M129.3769,-131.7159C177.9674,-121.2339 252.2462,-105.2105 296.0926,-95.7519"/>
<polygon fill="#000000" stroke="#000000" points="296.9851,-99.14 306.0222,-93.6099 295.509,-92.2974 296.9851,-99.14"/>
</g>
<!-- files_2 -->
<g id="node7" class="node">
<title>files_2</title>
<ellipse fill="#d3d3d3" stroke="#000000" cx="81.7037" cy="-88" rx="27.8228" ry="18"/>
<text text-anchor="middle" x="81.7037" y="-83.8" font-family="Times,serif" font-size="14.00" fill="#000000">files</text>
</g>
<!-- files_2&#45;&gt;api -->
<g id="edge3" class="edge">
<title>files_2-&gt;api</title>
<path fill="none" stroke="#000000" d="M109.4492,-88C154.609,-88 244.0489,-88 294.7237,-88"/>
<polygon fill="#000000" stroke="#000000" points="294.9189,-91.5001 304.9188,-88 294.9188,-84.5001 294.9189,-91.5001"/>
</g>
</g>
</svg>