<?xml version="1.0" encoding="UTF-8" standalone="no"?><!DOCTYPE svg PUBLIC "-//W3C//DTD SVG 1.1//EN" "http://www.w3.org/Graphics/SVG/1.1/DTD/svg11.dtd"><!-- Generated by graphviz version 2.40.1 (20161225.0304)
 --><!-- Title: G Pages: 1 --><svg xmlns="http://www.w3.org/2000/svg" xmlns:xlink="http://www.w3.org/1999/xlink" width="362pt" height="495pt" viewBox="0.00 0.00 362.37 495.00">
<g id="graph0" class="graph" transform="scale(1 1) rotate(0) translate(4 491)">
<title>G</title>
<polygon fill="#ffffff" stroke="transparent" points="-4,4 -4,-491 358.3683,-491 358.3683,4 -4,4"/>
<g id="clust1" class="cluster">
<title>cluster_backend</title>
<polygon fill="#d3d3d3" stroke="#000000" points="213.3683,-8 213.3683,-218 354.3683,-218 354.3683,-8 213.3683,-8"/>
<text text-anchor="middle" x="283.8683" y="-199.6" font-family="Arial" font-size="16.00" fill="#000000">Backend</text>
</g>
<g id="clust2" class="cluster">
<title>cluster_connection</title>
<path fill="#ffffff" stroke="#a9a9a9" d="M233.3683,-62C233.3683,-62 334.3683,-62 334.3683,-62 340.3683,-62 346.3683,-68 346.3683,-74 346.3683,-74 346.3683,-127 346.3683,-127 346.3683,-133 340.3683,-139 334.3683,-139 334.3683,-139 233.3683,-139 233.3683,-139 227.3683,-139 221.3683,-133 221.3683,-127 221.3683,-127 221.3683,-74 221.3683,-74 221.3683,-68 227.3683,-62 233.3683,-62"/>
<text text-anchor="middle" x="283.8683" y="-122.4" font-family="Arial" font-size="14.00" fill="#000000">Connection Layer</text>
</g>
<g id="clust3" class="cluster">
<title>cluster_assets</title>
<polygon fill="#b0e0e6" stroke="#000000" points="8,-290 8,-479 140.3492,-479 140.3492,-290 8,-290"/>
<text text-anchor="middle" x="74.1746" y="-460.6" font-family="Arial" font-size="16.00" fill="#000000">Assets</text>
</g>
<g id="clust4" class="cluster">
<title>cluster_frontend</title>
<polygon fill="#b0e0e6" stroke="#000000" points="10.4979,-54 10.4979,-282 137.8513,-282 137.8513,-54 10.4979,-54"/>
<text text-anchor="middle" x="74.1746" y="-263.6" font-family="Arial" font-size="16.00" fill="#000000">Frontend</text>
</g>
<g id="clust5" class="cluster">
<title>cluster_bundle</title>
<path fill="#ffffff" stroke="#87ceeb" d="M30.4979,-62C30.4979,-62 117.8513,-62 117.8513,-62 123.8513,-62 129.8513,-68 129.8513,-74 129.8513,-74 129.8513,-235 129.8513,-235 129.8513,-241 123.8513,-247 117.8513,-247 117.8513,-247 30.4979,-247 30.4979,-247 24.4979,-247 18.4979,-241 18.4979,-235 18.4979,-235 18.4979,-74 18.4979,-74 18.4979,-68 24.4979,-62 30.4979,-62"/>
<text text-anchor="middle" x="74.1746" y="-230.4" font-family="Arial" font-size="14.00" fill="#000000">For Bundle</text>
</g>
<!-- api -->
<g id="node1" class="node">
<title>api</title>
<polygon fill="#ffffff" stroke="#000000" points="310.3683,-106 256.3683,-106 256.3683,-70 310.3683,-70 310.3683,-106"/>
<text text-anchor="middle" x="283.3683" y="-83.8" font-family="Arial" font-size="14.00" fill="#000000">API</text>
</g>
<!-- components -->
<g id="node2" class="node">
<title>components</title>
<polygon fill="#ffffff" stroke="#000000" points="331.2224,-183 235.5142,-183 235.5142,-147 331.2224,-147 331.2224,-183"/>
<text text-anchor="middle" x="283.3683" y="-160.8" font-family="Arial" font-size="14.00" fill="#000000">Components</text>
</g>
<!-- components_2 -->
<g id="node7" class="node">
<title>components_2</title>
<polygon fill="#ffffff" stroke="#000000" points="122.0287,-160 26.3205,-160 26.3205,-124 122.0287,-124 122.0287,-160"/>
<text text-anchor="middle" x="74.1746" y="-137.8" font-family="Arial" font-size="14.00" fill="#000000">Components</text>
</g>
<!-- components&#45;&gt;components_2 -->
<g id="edge1" class="edge">
<title>components-&gt;components_2</title>
<path fill="none" stroke="#555555" d="M235.4806,-159.7349C204.7636,-156.3577 164.6942,-151.9523 132.1766,-148.3771"/>
<polygon fill="#555555" stroke="#555555" points="132.2283,-144.8618 121.9056,-147.2478 131.4632,-151.8198 132.2283,-144.8618"/>
<text text-anchor="middle" x="177.0204" y="-174" font-family="Arial" font-size="12.00" fill="#000000">Automatic</text>
<text text-anchor="middle" x="177.0204" y="-159.6" font-family="Arial" font-size="12.00" fill="#000000">Routes</text>
</g>
<!-- files -->
<g id="node3" class="node">
<title>files</title>
<polygon fill="#ffffff" stroke="#000000" points="310.3683,-52 256.3683,-52 256.3683,-16 310.3683,-16 310.3683,-52"/>
<text text-anchor="middle" x="283.3683" y="-29.8" font-family="Arial" font-size="14.00" fill="#000000">Files</text>
</g>
<!-- bundled -->
<g id="node4" class="node">
<title>bundled</title>
<path fill="none" stroke="#ff0000" d="M120.5243,-444C120.5243,-444 27.8249,-444 27.8249,-444 21.8249,-444 15.8249,-438 15.8249,-432 15.8249,-432 15.8249,-364 15.8249,-364 15.8249,-358 21.8249,-352 27.8249,-352 27.8249,-352 120.5243,-352 120.5243,-352 126.5243,-352 132.5243,-358 132.5243,-364 132.5243,-364 132.5243,-432 132.5243,-432 132.5243,-438 126.5243,-444 120.5243,-444"/>
<text text-anchor="start" x="24" y="-428.4" font-family="Arial" font-size="14.00" fill="#000000">Scripts and CSS</text>
<text text-anchor="start" x="36.0547" y="-414.4" font-family="Arial" font-size="14.00" fill="#000000"> files are </text>
<text text-anchor="start" x="92.8387" y="-414.4" font-family="Arial" font-weight="bold" font-size="14.00" fill="#000000">not</text>
<text text-anchor="start" x="44.6129" y="-400.4" font-family="Arial" font-weight="bold" font-size="14.00" fill="#000000"> available</text>
<text text-anchor="start" x="32.5477" y="-386.4" font-family="Arial" font-size="14.00" fill="#000000"> here and are</text>
<text text-anchor="start" x="40.7146" y="-372.4" font-family="Arial" font-size="14.00" fill="#000000"> generated</text>
<text text-anchor="start" x="31.7707" y="-358.4" font-family="Arial" font-size="14.00" fill="#000000"> by a bundler.</text>
</g>
<!-- static -->
<g id="node5" class="node">
<title>static</title>
<polygon fill="#ffffff" stroke="#000000" points="116.6218,-334 31.7274,-334 31.7274,-298 116.6218,-298 116.6218,-334"/>
<text text-anchor="middle" x="74.1746" y="-311.8" font-family="Arial" font-size="14.00" fill="#000000">Static Files</text>
</g>
<!-- css -->
<g id="node6" class="node">
<title>css</title>
<polygon fill="#ffffff" stroke="#000000" points="101.1746,-214 47.1746,-214 47.1746,-178 101.1746,-178 101.1746,-214"/>
<text text-anchor="middle" x="74.1746" y="-191.8" font-family="Arial" font-size="14.00" fill="#000000">CSS</text>
</g>
<!-- components_2&#45;&gt;api -->
<g id="edge2" class="edge">
<title>components_2-&gt;api</title>
<path fill="none" stroke="#555555" d="M121.9056,-129.679C159.771,-119.9047 211.9214,-106.4429 246.5931,-97.4929"/>
<polygon fill="#555555" stroke="#555555" points="247.5114,-100.8707 256.3192,-94.9823 245.7618,-94.0929 247.5114,-100.8707"/>
</g>
<!-- files_2 -->
<g id="node8" class="node">
<title>files_2</title>
<polygon fill="#ffffff" stroke="#000000" points="101.1746,-106 47.1746,-106 47.1746,-70 101.1746,-70 101.1746,-106"/>
<text text-anchor="middle" x="74.1746" y="-83.8" font-family="Arial" font-size="14.00" fill="#000000">Files</text>
</g>
<!-- files_2&#45;&gt;api -->
<g id="edge3" class="edge">
<title>files_2-&gt;api</title>
<path fill="none" stroke="#555555" d="M101.523,-88C138.5062,-88 204.6008,-88 246.1014,-88"/>
<polygon fill="#555555" stroke="#555555" points="246.3447,-91.5001 256.3447,-88 246.3446,-84.5001 246.3447,-91.5001"/>
</g>
</g>
</svg>